<svg width="18" height="18" viewBox="0 0 18 18" fill="none" xmlns="http://www.w3.org/2000/svg">
<path d="M8.75 0.25C6.42936 0.25 4.20376 1.17187 2.56282 2.81282C0.921872 4.45376 0 6.67936 0 9V14.625C0 14.7908 0.065848 14.9497 0.183058 15.0669C0.300268 15.1842 0.45924 15.25 0.625 15.25H4.375C4.54076 15.25 4.69973 15.1842 4.81694 15.0669C4.93415 14.9497 5 14.7908 5 14.625V9.625C5 9.45924 4.93415 9.30027 4.81694 9.18306C4.69973 9.06585 4.54076 9 4.375 9H1.25C1.25 7.01088 2.04018 5.10322 3.4467 3.6967C4.85322 2.29018 6.76088 1.5 8.75 1.5C10.7391 1.5 12.6468 2.29018 14.0533 3.6967C15.4598 5.10322 16.25 7.01088 16.25 9H13.125C12.9592 9 12.8003 9.06585 12.6831 9.18306C12.5658 9.30027 12.5 9.45924 12.5 9.625V14.625C12.5 14.7908 12.5658 14.9497 12.6831 15.0669C12.8003 15.1842 12.9592 15.25 13.125 15.25H16.25V16.5H9.375V15.875C9.375 15.7092 9.30915 15.5503 9.19194 15.4331C9.07473 15.3158 8.91576 15.25 8.75 15.25C8.58424 15.25 8.42527 15.3158 8.30806 15.4331C8.19085 15.5503 8.125 15.7092 8.125 15.875V17.125C8.125 17.2908 8.19085 17.4497 8.30806 17.5669C8.42527 17.6842 8.58424 17.75 8.75 17.75H16.875C17.0408 17.75 17.1997 17.6842 17.3169 17.5669C17.4342 17.4497 17.5 17.2908 17.5 17.125V9C17.5 6.67936 16.5781 4.45376 14.9372 2.81282C13.2962 1.17187 11.0706 0.25 8.75 0.25Z" fill="#9F9F9F"/>
</svg>
