<svg width="18" height="18" viewBox="0 0 18 18" fill="none" xmlns="http://www.w3.org/2000/svg">
<path fill-rule="evenodd" clip-rule="evenodd" d="M15.5455 2.98209H14.7273V2.49818C14.7265 2.11148 14.638 1.73021 14.4685 1.38428C14.299 1.03835 14.0532 0.737168 13.7504 0.50437C13.4476 0.271572 13.096 0.113487 12.7232 0.0425152C12.3504 -0.0284564 11.9666 -0.0103833 11.6018 0.0953166L2.23364 2.82357C2.09548 2.8676 1.97126 2.94821 1.87364 3.05718C1.33997 3.18974 0.86532 3.501 0.525639 3.94117C0.185958 4.38134 0.000874013 4.92496 0 5.48508V15.497C0 16.1608 0.258603 16.7975 0.71892 17.2669C1.17924 17.7363 1.80356 18 2.45455 18H15.5455C16.1964 18 16.8208 17.7363 17.2811 17.2669C17.7414 16.7975 18 16.1608 18 15.497V5.48508C18 4.82124 17.7414 4.1846 17.2811 3.7152C16.8208 3.2458 16.1964 2.98209 15.5455 2.98209ZM12.0518 1.69723C12.1759 1.66164 12.3065 1.65646 12.433 1.68212C12.5594 1.70779 12.6782 1.76356 12.7795 1.8449C12.8808 1.92623 12.9618 2.03083 13.0159 2.15016C13.07 2.26949 13.0957 2.40017 13.0909 2.53156V3.01547H7.65818L12.0518 1.69723ZM16.3636 11.3254H13.9091C13.6921 11.3254 13.484 11.2375 13.3305 11.081C13.1771 10.9245 13.0909 10.7123 13.0909 10.491C13.0909 10.2698 13.1771 10.0576 13.3305 9.90109C13.484 9.74462 13.6921 9.65672 13.9091 9.65672H16.3636V11.3254ZM16.3636 7.98806H14.0318C13.4426 7.97271 12.8667 8.16775 12.4036 8.53947C11.9405 8.91119 11.6192 9.43622 11.4955 10.0238C11.428 10.3858 11.4398 10.7586 11.5299 11.1154C11.62 11.4722 11.7863 11.8044 12.0169 12.0881C12.2474 12.3718 12.5366 12.6001 12.8637 12.7567C13.1908 12.9133 13.5477 12.9944 13.9091 12.994H16.3636V15.497C16.3636 15.7183 16.2774 15.9305 16.124 16.087C15.9706 16.2434 15.7625 16.3313 15.5455 16.3313H2.45455C2.23755 16.3313 2.02944 16.2434 1.876 16.087C1.72256 15.9305 1.63636 15.7183 1.63636 15.497V5.48508C1.63636 5.2638 1.72256 5.05158 1.876 4.89512C2.02944 4.73865 2.23755 4.65075 2.45455 4.65075H15.5455C15.7625 4.65075 15.9706 4.73865 16.124 4.89512C16.2774 5.05158 16.3636 5.2638 16.3636 5.48508V7.98806Z" fill="#9F9F9F"/>
</svg>
