<svg width="19" height="19" viewBox="0 0 19 19" fill="none" xmlns="http://www.w3.org/2000/svg">
<path fill-rule="evenodd" clip-rule="evenodd" d="M9.16667 1.66667C7.68331 1.66667 6.23326 2.10654 4.99989 2.93065C3.76652 3.75476 2.80523 4.9261 2.23757 6.29654C1.66991 7.66699 1.52139 9.17499 1.81078 10.6298C2.10017 12.0847 2.81447 13.4211 3.86337 14.47C4.91226 15.5189 6.24863 16.2332 7.70349 16.5226C9.15835 16.812 10.6663 16.6634 12.0368 16.0958C13.4072 15.5281 14.5786 14.5668 15.4027 13.3334C16.2268 12.1001 16.6667 10.65 16.6667 9.16667C16.6667 7.17755 15.8765 5.26989 14.47 3.86337C13.0634 2.45685 11.1558 1.66667 9.16667 1.66667ZM0 9.16667C0 7.35367 0.537615 5.58139 1.54486 4.07394C2.55211 2.56649 3.98375 1.39158 5.65873 0.697775C7.33372 0.0039718 9.17684 -0.177559 10.955 0.176139C12.7332 0.529837 14.3665 1.40288 15.6485 2.68486C16.9305 3.96684 17.8035 5.60018 18.1572 7.37834C18.5109 9.1565 18.3294 10.9996 17.6356 12.6746C16.9418 14.3496 15.7668 15.7812 14.2594 16.7885C12.7519 17.7957 10.9797 18.3333 9.16667 18.3333C6.73552 18.3333 4.40394 17.3676 2.68485 15.6485C0.965771 13.9294 0 11.5978 0 9.16667Z" fill="#5181B8"/>
<path fill-rule="evenodd" clip-rule="evenodd" d="M14.2223 6.06628C14.3599 6.22815 14.4306 6.43649 14.4197 6.6487C14.4089 6.86091 14.3174 7.06096 14.1639 7.20795L8.04728 12.933C7.85148 13.1024 7.59714 13.1886 7.33864 13.173C7.08014 13.1575 6.83799 13.0414 6.66395 12.8496L4.16395 10.6163C3.99819 10.4693 3.8976 10.2625 3.88432 10.0414C3.87103 9.82023 3.94614 9.60288 4.09311 9.43712C4.24009 9.27136 4.44689 9.17077 4.66803 9.15749C4.88916 9.1442 5.10652 9.21931 5.27228 9.36628L7.49728 11.2496L13.0639 5.99962C13.2278 5.85803 13.4404 5.78581 13.6566 5.79825C13.8728 5.8107 14.0757 5.90683 14.2223 6.06628Z" fill="#5181B8"/>
</svg>
