<svg width="30" height="30" viewBox="0 0 30 30" fill="none" xmlns="http://www.w3.org/2000/svg">
<path fill-rule="evenodd" clip-rule="evenodd" d="M25.9091 4.97015H24.5455V4.16364C24.5442 3.51913 24.3966 2.88368 24.1141 2.30713C23.8316 1.73058 23.422 1.22861 22.9173 0.840617C22.4126 0.452621 21.8267 0.189145 21.2054 0.0708586C20.5841 -0.0474273 19.9443 -0.0173054 19.3364 0.158861L3.72273 4.70595C3.49248 4.77933 3.28543 4.91368 3.12273 5.0953C2.23328 5.31624 1.4422 5.83501 0.876065 6.56862C0.30993 7.30223 0.00145669 8.20827 0 9.1418V25.8284C0 26.9347 0.431005 27.9958 1.1982 28.7782C1.96539 29.5605 3.00593 30 4.09091 30H25.9091C26.9941 30 28.0346 29.5605 28.8018 28.7782C29.569 27.9958 30 26.9347 30 25.8284V9.1418C30 8.03541 29.569 6.97433 28.8018 6.192C28.0346 5.40966 26.9941 4.97015 25.9091 4.97015ZM20.0864 2.82871C20.2932 2.76939 20.5109 2.76077 20.7217 2.80354C20.9324 2.84631 21.1303 2.93927 21.2991 3.07483C21.4679 3.21039 21.6029 3.38471 21.6932 3.5836C21.7834 3.78248 21.8262 4.00029 21.8182 4.21926V5.02578H12.7636L20.0864 2.82871ZM27.2727 18.8756H23.1818C22.8202 18.8756 22.4733 18.7291 22.2176 18.4683C21.9618 18.2076 21.8182 17.8539 21.8182 17.4851C21.8182 17.1163 21.9618 16.7626 22.2176 16.5018C22.4733 16.241 22.8202 16.0945 23.1818 16.0945H27.2727V18.8756ZM27.2727 13.3134H23.3864C22.4044 13.2879 21.4445 13.6129 20.6726 14.2324C19.9008 14.852 19.3654 15.727 19.1591 16.7064C19.0467 17.3097 19.0663 17.9309 19.2165 18.5256C19.3667 19.1204 19.6439 19.6739 20.0281 20.1468C20.4124 20.6197 20.8943 21.0002 21.4395 21.2612C21.9846 21.5222 22.5796 21.6573 23.1818 21.6567H27.2727V25.8284C27.2727 26.1972 27.1291 26.5508 26.8733 26.8116C26.6176 27.0724 26.2708 27.2189 25.9091 27.2189H4.09091C3.72925 27.2189 3.3824 27.0724 3.12667 26.8116C2.87094 26.5508 2.72727 26.1972 2.72727 25.8284V9.1418C2.72727 8.773 2.87094 8.41931 3.12667 8.15853C3.3824 7.89775 3.72925 7.75125 4.09091 7.75125H25.9091C26.2708 7.75125 26.6176 7.89775 26.8733 8.15853C27.1291 8.41931 27.2727 8.773 27.2727 9.1418V13.3134Z" fill="#9F9F9F"/>
</svg>
