<svg width="24" height="24" viewBox="0 0 24 24" fill="none" xmlns="http://www.w3.org/2000/svg">
<path fill-rule="evenodd" clip-rule="evenodd" d="M12 0C5.37258 0 0 5.37258 0 12C0 18.6274 5.37258 24 12 24C18.6274 24 24 18.6274 24 12C24 5.37258 18.6274 0 12 0ZM12.6658 10.1692L12.6406 9.75395C12.5651 8.67774 13.2282 7.69476 14.2774 7.31343C14.6635 7.17784 15.3182 7.16089 15.7463 7.27953C15.9142 7.33038 16.2331 7.49986 16.4598 7.65239L16.8711 7.93203L17.3243 7.78797C17.5761 7.71171 17.9119 7.5846 18.063 7.49986C18.2057 7.42359 18.3316 7.38122 18.3316 7.40664C18.3316 7.5507 18.021 8.04219 17.7608 8.31336C17.4083 8.69469 17.509 8.72859 18.2224 8.47437C18.6505 8.33031 18.6589 8.33031 18.575 8.49132C18.5246 8.57606 18.2644 8.87265 17.9874 9.14382C17.5174 9.60989 17.4922 9.66073 17.4922 10.0505C17.4922 10.6522 17.2068 11.9063 16.9214 12.5927C16.3926 13.8808 15.2595 15.2112 14.1263 15.8807C12.5315 16.8213 10.4079 17.0586 8.61999 16.5077C8.02404 16.3213 7 15.8468 7 15.762C7 15.7366 7.31057 15.7027 7.68829 15.6942C8.4773 15.6773 9.26631 15.457 9.93781 15.0672L10.3911 14.796L9.87066 14.618C9.13201 14.3638 8.46891 13.7791 8.30103 13.2283C8.25067 13.0503 8.26746 13.0419 8.73751 13.0419L9.22434 13.0334L8.81305 12.8385C8.32621 12.5927 7.88134 12.1775 7.66311 11.7538C7.50362 11.4487 7.30218 10.6776 7.36093 10.6183C7.37772 10.5929 7.55399 10.6437 7.75544 10.7115C8.33461 10.9234 8.41015 10.8725 8.0744 10.5166C7.44487 9.87258 7.25181 8.91502 7.55399 8.0083L7.69668 7.60154L8.25067 8.15236C9.38383 9.26245 10.7184 9.92343 12.2461 10.1183L12.6658 10.1692Z" fill="black"/>
</svg>
