<svg width="24" height="24" viewBox="0 0 24 24" fill="none" xmlns="http://www.w3.org/2000/svg">
<path fill-rule="evenodd" clip-rule="evenodd" d="M12 0C5.37258 0 0 5.37258 0 12C0 18.6274 5.37258 24 12 24C18.6274 24 24 18.6274 24 12C24 5.37258 18.6274 0 12 0ZM5.76172 9.93896H8.48118V18.1098H5.76172V9.93896ZM8.65899 7.41135C8.64134 6.6102 8.06844 6 7.13813 6C6.20781 6 5.59961 6.6102 5.59961 7.41135C5.59961 8.1959 6.18984 8.82367 7.10282 8.82367H7.1202C8.06844 8.82367 8.65899 8.1959 8.65899 7.41135ZM15.1573 9.74707C16.9469 9.74707 18.2885 10.9151 18.2885 13.4249L18.2884 18.1098H15.569V13.7384C15.569 12.6404 15.1755 11.8911 14.191 11.8911C13.4397 11.8911 12.9922 12.3962 12.7957 12.8841C12.7238 13.0589 12.7061 13.3025 12.7061 13.5467V18.11H9.98633C9.98633 18.11 10.0222 10.7059 9.98633 9.93915H12.7061V11.0965C13.0671 10.5401 13.7135 9.74707 15.1573 9.74707Z" fill="black"/>
</svg>
