<svg width="24" height="24" viewBox="0 0 24 24" fill="none" xmlns="http://www.w3.org/2000/svg">
<path fill-rule="evenodd" clip-rule="evenodd" d="M15.6838 0H8.31616C1.5921 0 0 1.5921 0 8.31616V15.6838C0 22.4079 1.5921 24 8.31616 24H15.6838C22.4079 24 24 22.4079 24 15.6838V8.31616C24 1.5921 22.4079 0 15.6838 0ZM19.1223 7.62167C19.6473 7.62167 19.7659 7.89267 19.6473 8.26529C19.4623 9.11925 17.9258 11.3845 17.4499 12.0862C17.3594 12.2195 17.3073 12.2963 17.31 12.2963C17.1237 12.6012 17.056 12.7367 17.31 13.0754C17.4019 13.2007 17.5966 13.3918 17.8192 13.6102C18.0481 13.8348 18.3064 14.0883 18.5125 14.3288C19.2578 15.1757 19.8336 15.887 19.9861 16.3782C20.1216 16.8694 19.8845 17.1234 19.3763 17.1234H17.6318C17.1695 17.1234 16.9312 16.8579 16.4233 16.2921C16.2055 16.0495 15.9382 15.7516 15.5824 15.3958C14.5492 14.3965 14.0919 14.2611 13.8379 14.2611C13.4822 14.2611 13.3806 14.3457 13.3806 14.8539V16.429C13.3806 16.8524 13.2451 17.1065 12.1272 17.1065C10.2811 17.1065 8.23167 15.9886 6.79201 13.9054C4.62405 10.8567 4.03125 8.55322 4.03125 8.09591C4.03125 7.84186 4.11594 7.60474 4.62405 7.60474H6.38552C6.82589 7.60474 6.99526 7.79105 7.16463 8.28222C8.02843 10.772 9.46809 12.9569 10.0609 12.9569C10.2811 12.9569 10.3827 12.8553 10.3827 12.2963V9.72188C10.3409 8.99012 10.0861 8.6713 9.89725 8.43488C9.7801 8.28825 9.68827 8.17331 9.68827 8.01123C9.68827 7.80798 9.85764 7.60474 10.1286 7.60474H12.8725C13.2451 7.60474 13.3806 7.80798 13.3806 8.24835V11.7205C13.3806 12.0931 13.533 12.2286 13.6516 12.2286C13.8718 12.2286 14.0581 12.0931 14.4646 11.6866C15.7179 10.2808 16.6156 8.11285 16.6156 8.11285C16.7341 7.85879 16.9374 7.62167 17.3778 7.62167H19.1223Z" fill="black"/>
</svg>
