<svg width="24" height="24" viewBox="0 0 24 24" fill="none" xmlns="http://www.w3.org/2000/svg">
<path fill-rule="evenodd" clip-rule="evenodd" d="M12 0C5.37258 0 0 5.37258 0 12C0 18.6274 5.37258 24 12 24C18.6274 24 24 18.6274 24 12C24 5.37258 18.6274 0 12 0ZM9.36125 5.63876C10.0439 5.6077 10.2621 5.6001 12.0002 5.6001H11.9982C13.7369 5.6001 13.9542 5.6077 14.6369 5.63876C15.3182 5.66996 15.7836 5.77783 16.1916 5.9361C16.6129 6.09944 16.9689 6.3181 17.3249 6.67411C17.6809 7.02985 17.8996 7.38692 18.0636 7.80785C18.2209 8.21479 18.3289 8.67986 18.3609 9.3612C18.3916 10.0439 18.3996 10.262 18.3996 12.0002C18.3996 13.7383 18.3916 13.9559 18.3609 14.6386C18.3289 15.3197 18.2209 15.7849 18.0636 16.1919C17.8996 16.6127 17.6809 16.9698 17.3249 17.3256C16.9693 17.6816 16.6128 17.9008 16.192 18.0642C15.7848 18.2225 15.3192 18.3304 14.6378 18.3616C13.9552 18.3926 13.7377 18.4002 11.9994 18.4002C10.2614 18.4002 10.0434 18.3926 9.36071 18.3616C8.67951 18.3304 8.2143 18.2225 7.8071 18.0642C7.38643 17.9008 7.02936 17.6816 6.67375 17.3256C6.31788 16.9698 6.09921 16.6127 5.93561 16.1918C5.77748 15.7849 5.66961 15.3198 5.63828 14.6385C5.60734 13.9558 5.59961 13.7383 5.59961 12.0002C5.59961 10.262 5.60761 10.0437 5.63814 9.36107C5.66881 8.68 5.77681 8.21479 5.93548 7.80772C6.09948 7.38692 6.31815 7.02985 6.67415 6.67411C7.02989 6.31824 7.38696 6.09957 7.8079 5.9361C8.21484 5.77783 8.67991 5.66996 9.36125 5.63876Z" fill="black"/>
<path fill-rule="evenodd" clip-rule="evenodd" d="M11.7866 6.75349H11.7873L12.0006 6.75355C13.7094 6.75355 13.912 6.75969 14.5868 6.79035C15.2108 6.81889 15.5495 6.92316 15.7751 7.01076C16.0737 7.12676 16.2867 7.26543 16.5105 7.48943C16.7345 7.71343 16.8732 7.92677 16.9895 8.22543C17.0771 8.45077 17.1815 8.78944 17.2099 9.41345C17.2405 10.0881 17.2472 10.2908 17.2472 11.9988C17.2472 13.7068 17.2405 13.9095 17.2099 14.5842C17.1813 15.2082 17.0771 15.5468 16.9895 15.7722C16.8735 16.0709 16.7345 16.2835 16.5105 16.5074C16.2865 16.7314 16.0739 16.8701 15.7751 16.9861C15.5497 17.0741 15.2108 17.1781 14.5868 17.2066C13.9121 17.2373 13.7094 17.2439 12.0006 17.2439C10.2917 17.2439 10.0891 17.2373 9.41447 17.2066C8.79046 17.1778 8.45179 17.0735 8.22605 16.9859C7.92739 16.8699 7.71405 16.7313 7.49005 16.5073C7.26604 16.2833 7.12738 16.0704 7.01111 15.7716C6.92351 15.5463 6.81911 15.2076 6.79071 14.5836C6.76004 13.909 6.75391 13.7063 6.75391 11.9972C6.75391 10.2881 6.76004 10.0865 6.79071 9.41185C6.81924 8.78784 6.92351 8.44917 7.01111 8.22357C7.12711 7.9249 7.26604 7.71156 7.49005 7.48756C7.71405 7.26356 7.92739 7.12489 8.22605 7.00862C8.45166 6.92062 8.79046 6.81662 9.41447 6.78795C10.0049 6.76129 10.2337 6.75329 11.4265 6.75195V6.75355C11.5378 6.75338 11.6575 6.75343 11.7866 6.75349ZM15.4164 7.81594C14.9924 7.81594 14.6484 8.15955 14.6484 8.58368C14.6484 9.00769 14.9924 9.35169 15.4164 9.35169C15.8405 9.35169 16.1845 9.00769 16.1845 8.58368C16.1845 8.15968 15.8405 7.81567 15.4164 7.81567V7.81594ZM8.71484 12.0001C8.71484 10.185 10.1864 8.71345 12.0014 8.71338C13.8165 8.71338 15.2877 10.185 15.2877 12.0001C15.2877 13.8152 13.8166 15.2861 12.0015 15.2861C10.1865 15.2861 8.71484 13.8152 8.71484 12.0001Z" fill="black"/>
<path d="M12.0005 9.8667C13.1787 9.8667 14.1339 10.8218 14.1339 12.0001C14.1339 13.1782 13.1787 14.1334 12.0005 14.1334C10.8223 14.1334 9.86719 13.1782 9.86719 12.0001C9.86719 10.8218 10.8223 9.8667 12.0005 9.8667Z" fill="black"/>
</svg>
