<svg width="19" height="19" viewBox="0 0 19 19" fill="none" xmlns="http://www.w3.org/2000/svg">
<path d="M8.97023 18.2904C8.75023 18.2904 8.56323 18.2244 8.40923 18.0924C8.27723 17.9384 8.21123 17.7514 8.21123 17.5314V10.6344H1.38023C1.16023 10.6344 0.973233 10.5684 0.819233 10.4364C0.687233 10.2824 0.621233 10.0954 0.621233 9.87539V8.88539C0.621233 8.66539 0.687233 8.48939 0.819233 8.35739C0.973233 8.20339 1.16023 8.12639 1.38023 8.12639H8.21123V1.42739C8.21123 1.18539 8.27723 0.998394 8.40923 0.866393C8.56323 0.734393 8.75023 0.668393 8.97023 0.668393H10.0262C10.2682 0.668393 10.4552 0.734393 10.5872 0.866393C10.7192 0.998394 10.7852 1.18539 10.7852 1.42739V8.12639H17.6162C17.8362 8.12639 18.0122 8.20339 18.1442 8.35739C18.2982 8.48939 18.3752 8.66539 18.3752 8.88539V9.87539C18.3752 10.0954 18.2982 10.2824 18.1442 10.4364C18.0122 10.5684 17.8362 10.6344 17.6162 10.6344H10.7852V17.5314C10.7852 17.7514 10.7082 17.9384 10.5542 18.0924C10.4222 18.2244 10.2462 18.2904 10.0262 18.2904H8.97023Z" fill="white"/>
</svg>
