<svg width="13" height="14" viewBox="0 0 13 14" fill="none" xmlns="http://www.w3.org/2000/svg">
<path d="M6.11516 13.208C5.95516 13.208 5.81916 13.16 5.70716 13.064C5.61116 12.952 5.56316 12.816 5.56316 12.656V7.64H0.595156C0.435156 7.64 0.299156 7.592 0.187156 7.496C0.0911563 7.384 0.0431563 7.248 0.0431563 7.088V6.368C0.0431563 6.208 0.0911563 6.08 0.187156 5.984C0.299156 5.872 0.435156 5.816 0.595156 5.816H5.56316V0.943999C5.56316 0.768 5.61116 0.631999 5.70716 0.535999C5.81916 0.439999 5.95516 0.391999 6.11516 0.391999H6.88316C7.05916 0.391999 7.19516 0.439999 7.29116 0.535999C7.38716 0.631999 7.43516 0.768 7.43516 0.943999V5.816H12.4032C12.5632 5.816 12.6912 5.872 12.7872 5.984C12.8992 6.08 12.9552 6.208 12.9552 6.368V7.088C12.9552 7.248 12.8992 7.384 12.7872 7.496C12.6912 7.592 12.5632 7.64 12.4032 7.64H7.43516V12.656C7.43516 12.816 7.37916 12.952 7.26716 13.064C7.17116 13.16 7.04316 13.208 6.88316 13.208H6.11516Z" fill="white"/>
</svg>
