<svg width="20" height="20" viewBox="0 0 20 20" fill="none" xmlns="http://www.w3.org/2000/svg">
<path fill-rule="evenodd" clip-rule="evenodd" d="M15.0582 6.90027C15.1959 7.06213 15.2665 7.27047 15.2557 7.48268C15.2448 7.69489 15.1533 7.89495 14.9999 8.04194L8.88322 13.7669C8.68741 13.9364 8.43308 14.0226 8.17458 14.007C7.91608 13.9914 7.67393 13.8754 7.49988 13.6836L4.99988 11.4503C4.83412 11.3033 4.73354 11.0965 4.72025 10.8754C4.70697 10.6542 4.78208 10.4369 4.92905 10.2711C5.07603 10.1053 5.28283 10.0048 5.50396 9.99147C5.7251 9.97819 5.94246 10.0533 6.10822 10.2003L8.33322 12.0836L13.8999 6.8336C14.0638 6.69201 14.2763 6.61979 14.4926 6.63224C14.7088 6.64468 14.9117 6.74081 15.0582 6.90027Z" fill="#316BCE"/>
<path fill-rule="evenodd" clip-rule="evenodd" d="M10.0007 2.50066C8.51729 2.50066 7.06724 2.94052 5.83387 3.76463C4.60051 4.58874 3.63921 5.76008 3.07155 7.13053C2.5039 8.50097 2.35537 10.009 2.64476 11.4638C2.93415 12.9187 3.64846 14.2551 4.69735 15.304C5.74624 16.3528 7.08262 17.0672 8.53747 17.3565C9.99233 17.6459 11.5003 17.4974 12.8708 16.9298C14.2412 16.3621 15.4126 15.4008 16.2367 14.1674C17.0608 12.9341 17.5007 11.484 17.5007 10.0007C17.5007 8.01153 16.7105 6.10388 15.304 4.69735C13.8974 3.29083 11.9898 2.50066 10.0007 2.50066ZM0.833984 10.0007C0.833984 8.18766 1.3716 6.41538 2.37885 4.90793C3.38609 3.40048 4.81773 2.22556 6.49272 1.53176C8.16771 0.837956 10.0108 0.656426 11.789 1.01012C13.5671 1.36382 15.2005 2.23686 16.4825 3.51884C17.7644 4.80082 18.6375 6.43417 18.9912 8.21233C19.3449 9.99049 19.1633 11.8336 18.4695 13.5086C17.7757 15.1836 16.6008 16.6152 15.0934 17.6225C13.5859 18.6297 11.8136 19.1673 10.0007 19.1673C7.5695 19.1673 5.23792 18.2016 3.51884 16.4825C1.79976 14.7634 0.833984 12.4318 0.833984 10.0007Z" fill="#316BCE"/>
</svg>
