<svg width="44" height="44" viewBox="0 0 44 44" fill="none" xmlns="http://www.w3.org/2000/svg">
<path d="M21.48 43.36C20.9467 43.36 20.52 43.2 20.2 42.88C19.88 42.56 19.72 42.1333 19.72 41.6V24.08H2.36C1.82667 24.08 1.4 23.92 1.08 23.6C0.76 23.28 0.6 22.8533 0.6 22.32V21.2C0.6 20.6667 0.76 20.24 1.08 19.92C1.4 19.6 1.82667 19.44 2.36 19.44H19.72V2.4C19.72 1.86667 19.88 1.44 20.2 1.12C20.52 0.799997 20.9467 0.639997 21.48 0.639997H22.68C23.2133 0.639997 23.64 0.799997 23.96 1.12C24.28 1.44 24.44 1.86667 24.44 2.4V19.44H41.88C42.4133 19.44 42.84 19.6 43.16 19.92C43.48 20.24 43.64 20.6667 43.64 21.2V22.32C43.64 22.8533 43.48 23.28 43.16 23.6C42.84 23.92 42.4133 24.08 41.88 24.08H24.44V41.6C24.44 42.1333 24.28 42.56 23.96 42.88C23.64 43.2 23.2133 43.36 22.68 43.36H21.48Z" fill="#316BCE"/>
</svg>
